{"title":"Seeking Justice 2011 R3 DVDRip XViD DTRG.","uid":6984992,"size":1630500340,"categoryP":"video","categoryS":"movies","magnet":"?xt=urn:btih:76471a442e5aa465572018859878373b57e68669&amp;dn=Seeking+Justice+2011+R3+DVDRip+XViD+DTRG.&amp;tr=udp%3A%2F%2Ftracker.openbittorrent.com%3A80&amp;tr=udp%3A%2F%2Fopen.demonii.com%3A1337&amp;tr=udp%3A%2F%2Ftracker.coppersurfer.tk%3A6969&amp;tr=udp%3A%2F%2Fexodus.desync.com%3A6969","seeders":0,"leechers":0,"uploader":"moviesp2p","files":4,"time":1327535067,"description":"Format                           : AVI\nFormat/Info                      : Audio Video Interleave\nFile size                        : 1.51 GiB\nDuration                         : 1h 44mn\nOverall bit rate                 : 2 062 Kbps\nWriting library                  : VirtualDub build 32842/release\n\nVideo\nID                               : 0\nFormat                           : MPEG-4 Visual\nFormat profile                   : Advanced Simple@L5\nFormat settings, BVOP            : 1\nFormat settings, QPel            : No\nFormat settings, GMC             : No warppoints\nFormat settings, Matrix          : Default (H.263)\nMuxing mode                      : Packed bitstream\nCodec ID                         : XVID\nCodec ID/Hint                    : XviD\nDuration                         : 1h 44mn\nBit rate                         : 1 602 Kbps\nWidth                            : 624 pixels\nHeight                           : 352 pixels\nDisplay aspect ratio             : 16:9\nFrame rate                       : 29.970 fps\nColor space                      : YUV\nChroma subsampling               : 4:2:0\nBit depth                        : 8 bits\nScan type                        : Progressive\nCompression mode                 : Lossy\nBits/(Pixel*Frame)               : 0.243\nStream size                      : 1.17 GiB (78%)\nWriting library                  : XviD 64\n\nAudio\nID                               : 1\nFormat                           : AC-3\nFormat/Info                      : Audio Coding 3\nMode extension                   : CM (complete main)\nCodec ID                         : 2000\nDuration                         : 1h 44mn\nBit rate mode                    : Constant\nBit rate                         : 448 Kbps\nChannel(s)                       : 6 channels\nChannel positions                : Front: L C R, Side: L R, LFE\nSampling rate                    : 48.0 KHz\nBit depth                        : 16 bits\nCompression mode                 : Lossy\nStream size                      : 336 MiB (22%)\nAlignment                        : Aligned on interleaves\nInterleave, duration             : 33 ms (1.00 video frame)\nInterleave, preload duration     : 512 ms\n &lt;a href=&quot;\nhttp://www.imdb.com/title/tt1214962/&quot; rel=&quot;nofollow&quot; target=&quot;_NEW&quot;&gt;\nhttp://www.imdb.com/title/tt1214962/&lt;/a&gt;\n\nRatings: 6.1/10 from 1,381 users  \nReviews: 10 user | 25 critic\n\nAfter his wife is assaulted, a husband enlists the services of a vigilante group to help him settle the score.\nDirector:\nRoger Donaldson\nWriters:\nTodd Hickey (story), Robert Tannen (screenplay), and 1 more credit Ã‚Â»\nStars:\nNicolas Cage, January Jones and Guy Pearce","torrent":{"xt":"urn:btih:76471a442e5aa465572018859878373b57e68669","amp;dn":"Seeking+Justice+2011+R3+DVDRip+XViD+DTRG.","amp;tr":["udp%3A%2F%2Ftracker.openbittorrent.com%3A80","udp%3A%2F%2Fopen.demonii.com%3A1337","udp%3A%2F%2Ftracker.coppersurfer.tk%3A6969","udp%3A%2F%2Fexodus.desync.com%3A6969"],"infoHash":"76471a442e5aa465572018859878373b57e68669","infoHashBuffer":{"type":"Buffer","data":[118,71,26,68,46,90,164,101,87,32,24,133,152,120,55,59,87,230,134,105]},"announce":[],"urlList":[]}}